<svg width="24.000000" height="24.000000" viewBox="0 0 24 24" fill="none" xmlns="http://www.w3.org/2000/svg" xmlns:xlink="http://www.w3.org/1999/xlink">
	<desc>
			Created with Pixso.
	</desc>
	<defs>
		<clipPath id="clip244_1118">
			<rect id="Frame 9" rx="0.000000" width="23.000000" height="23.000000" transform="translate(0.500000 0.500000)" fill="white" fill-opacity="0"/>
		</clipPath>
	</defs>
	<rect id="Frame 9" rx="0.000000" width="23.000000" height="23.000000" transform="translate(0.500000 0.500000)" fill="#CFCFCF" fill-opacity="0"/>
	<g clip-path="url(#clip244_1118)">
		<path id="Union" d="M6.62848 6.57996C4.07227 9.0211 3.97894 13.0723 6.42004 15.6285C8.67407 17.9888 12.3008 18.2493 14.8559 16.3537L16.5476 18.1252C16.8527 18.4447 17.3591 18.4564 17.6786 18.1512C17.9982 17.8461 18.0099 17.3397 17.7047 17.0202L16.013 15.2486C18.0243 12.7836 17.9311 9.14871 15.6771 6.78839C13.2359 4.23215 9.18475 4.13882 6.62848 6.57996ZM8.00977 8.02637C6.25232 9.70465 6.18817 12.4898 7.86646 14.2473C9.54474 16.0047 12.33 16.0688 14.0873 14.3905C15.8448 12.7123 15.9089 9.92708 14.2307 8.16966C12.5524 6.41225 9.76721 6.34808 8.00977 8.02637Z" clip-rule="evenodd" fill="#B2B2B2" fill-opacity="1.000000" fill-rule="evenodd"/>
	</g>
</svg>
